<?xml version="1.0" encoding="UTF-8"?>
<svg width="24px" height="24px" viewBox="0 0 24 24" version="1.1" xmlns="http://www.w3.org/2000/svg">
    <g stroke="none" stroke-width="1" fill="none" fill-rule="evenodd">
        <rect fill="#E4022D" x="2" y="2" width="20" height="20" rx="2"/>
        <path d="M7,7 C8.65685425,7 10,8.34314575 10,10 C10,11.6568542 8.65685425,13 7,13 C5.34314575,13 4,11.6568542 4,10 C4,8.34314575 5.34314575,7 7,7 Z" fill="#FFFFFF"/>
        <path d="M17,7 C18.6568542,7 20,8.34314575 20,10 C20,11.6568542 18.6568542,13 17,13 C15.3431458,13 14,11.6568542 14,10 C14,8.34314575 15.3431458,7 17,7 Z" fill="#FFFFFF"/>
        <path d="M7,11 C8.65685425,11 10,12.3431458 10,14 C10,15.6568542 8.65685425,17 7,17 C5.34314575,17 4,15.6568542 4,14 C4,12.3431458 5.34314575,11 7,11 Z" fill="#FFFFFF"/>
        <path d="M17,11 C18.6568542,11 20,12.3431458 20,14 C20,15.6568542 18.6568542,17 17,17 C15.3431458,17 14,15.6568542 14,14 C14,12.3431458 15.3431458,11 17,11 Z" fill="#FFFFFF"/>
    </g>
</svg> 