<?xml version="1.0" encoding="UTF-8"?>
<svg width="24px" height="24px" viewBox="0 0 24 24" version="1.1" xmlns="http://www.w3.org/2000/svg">
    <g stroke="none" stroke-width="1" fill="none" fill-rule="evenodd">
        <path d="M20.1,6.9c0.2,1-0.1,2.2-0.5,3.2c-1.2,3.3-4.1,4.5-8.1,4.5h-0.7c-0.5,0-1,0.4-1.1,0.9l-0.8,5.3c-0.1,0.4-0.5,0.8-0.9,0.8H4.7c-0.4,0-0.7-0.3-0.6-0.7l2.5-15.7C6.7,4.8,7.2,4.4,7.7,4.4h7.1C17.6,4.4,19.8,5.1,20.1,6.9z" fill="#009CDE"/>
        <path d="M18.6,7.9c0.2-1,0-2-0.5-2.8c-0.5-0.8-1.3-1.3-2.2-1.6c-0.9-0.3-2-0.3-3.2-0.3h-5.7c-0.5,0-1,0.4-1.1,0.9L3.1,19.8C3,20.2,3.3,20.5,3.7,20.5h3.2c0.5,0,0.9-0.3,0.9-0.8l0.8-5.3c0.1-0.5,0.5-0.9,1.1-0.9h0.7c4,0,6.9-1.2,8.1-4.5C18.7,8.4,18.7,8.1,18.6,7.9z" fill="#012169"/>
    </g>
</svg> 